<?xml version="1.0" encoding="utf-8"?>
<!-- Generator: Adobe Illustrator 18.0.0, SVG Export Plug-In . SVG Version: 6.00 Build 0)  -->
<!DOCTYPE svg PUBLIC "-//W3C//DTD SVG 1.1//EN" "http://www.w3.org/Graphics/SVG/1.1/DTD/svg11.dtd">
<svg version="1.1" id="Layer_1" xmlns="http://www.w3.org/2000/svg" xmlns:xlink="http://www.w3.org/1999/xlink" x="0px" y="0px"
	 viewBox="0 0 64 64" enable-background="new 0 0 64 64" xml:space="preserve">
<g>
	<g>
		<g>
			<path fill="#FF6A4D" d="M32,0c17.7,0,32,14.3,32,32S49.7,64,32,64S0,49.7,0,32S14.3,0,32,0z"/>
		</g>
	</g>
	<g>
		<g>
			<path fill="#FFD04D" d="M46,24l-4,19H32V27c1.7,0,3-1.3,3-3c0-1.3-0.8-2.4-2-2.8V8C34.8,14.4,40.3,20.9,46,24z"/>
		</g>
	</g>
	<g>
		<g>
			<path fill="#4D3E6D" d="M43,46l2,9c0,0-23.1,0-26,0l2-9H43z"/>
		</g>
	</g>
	<g>
		<g>
			<path fill="#FFB54A" d="M32,27v16h-9l-5-19c5.5-3.2,11.2-9.6,13-16v13.2c-1.2,0.4-2,1.5-2,2.8C29,25.7,30.3,27,32,27z"/>
		</g>
	</g>
</g>
</svg>
