<?xml version="1.0" encoding="UTF-8" standalone="no"?>
<!-- Generator: Adobe Illustrator 18.0.0, SVG Export Plug-In . SVG Version: 6.00 Build 0)  -->

<svg
   xmlns:dc="http://purl.org/dc/elements/1.1/"
   xmlns:cc="http://creativecommons.org/ns#"
   xmlns:rdf="http://www.w3.org/1999/02/22-rdf-syntax-ns#"
   xmlns:svg="http://www.w3.org/2000/svg"
   xmlns="http://www.w3.org/2000/svg"
   xmlns:sodipodi="http://sodipodi.sourceforge.net/DTD/sodipodi-0.dtd"
   xmlns:inkscape="http://www.inkscape.org/namespaces/inkscape"
   version="1.1"
   id="Layer_1"
   x="0px"
   y="0px"
   viewBox="0 0 64 64"
   enable-background="new 0 0 64 64"
   xml:space="preserve"
   inkscape:version="0.91 r13725"
   sodipodi:docname="nib-flat-4.svg"
   inkscape:export-filename="C:\Users\Isaiah\!!Projects\journal\images\app-icon\nib-flat-3-512x512.png"
   inkscape:export-xdpi="720"
   inkscape:export-ydpi="720"><metadata
     id="metadata4167"><rdf:RDF><cc:Work
         rdf:about=""><dc:format>image/svg+xml</dc:format><dc:type
           rdf:resource="http://purl.org/dc/dcmitype/StillImage" /><dc:title></dc:title></cc:Work></rdf:RDF></metadata><defs
     id="defs4165" /><sodipodi:namedview
     pagecolor="#ffffff"
     bordercolor="#666666"
     borderopacity="1"
     objecttolerance="10"
     gridtolerance="10"
     guidetolerance="10"
     inkscape:pageopacity="0"
     inkscape:pageshadow="2"
     inkscape:window-width="1858"
     inkscape:window-height="1057"
     id="namedview4163"
     showgrid="false"
     inkscape:zoom="13.875"
     inkscape:cx="32"
     inkscape:cy="32"
     inkscape:window-x="-8"
     inkscape:window-y="-8"
     inkscape:window-maximized="1"
     inkscape:current-layer="g4137" /><g
     id="g4137"><g
       id="g4139"><g
         id="g4141"><path
           fill="#FF6A4D"
           d="M32,0c17.7,0,32,14.3,32,32S49.7,64,32,64S0,49.7,0,32S14.3,0,32,0z"
           id="path4143"
           style="fill:#4d3e6d" /></g></g><g
       id="g4169"
       transform="matrix(-1.0539568,-1.0539568,1.0539568,-1.0539568,37.277056,93.676182)"><g
         id="g4145"><g
           id="g4147"><path
             id="path4149"
             d="m 46,24 -4,19 -10,0 0,-16 c 1.7,0 3,-1.3 3,-3 0,-1.3 -0.8,-2.4 -2,-2.8 L 33,8 c 1.8,6.4 7.3,12.9 13,16 z"
             inkscape:connector-curvature="0"
             style="fill:#ffd04d" /></g></g><g
         id="g4157"><g
           id="g4159"><path
             id="path4161"
             d="m 32,27 0,16 -9,0 -5,-19 C 23.5,20.8 29.2,14.4 31,8 l 0,13.2 c -1.2,0.4 -2,1.5 -2,2.8 0,1.7 1.3,3 3,3 z"
             inkscape:connector-curvature="0"
             style="fill:#ffb54a" /></g></g></g></g></svg>